<?xml version="1.0" encoding="utf-8"?>
<!-- Generator: Adobe Illustrator 21.0.0, SVG Export Plug-In . SVG Version: 6.00 Build 0)  -->
<svg version="1.1" id="Layer_1" xmlns="http://www.w3.org/2000/svg" xmlns:xlink="http://www.w3.org/1999/xlink" x="0px" y="0px"
	 viewBox="0 0 140 146.8" style="enable-background:new 0 0 140 146.8;" xml:space="preserve">
<style type="text/css">
	.st0{fill:#22B573;}
	.st1{fill:none;stroke:#22B573;stroke-width:11.34;stroke-linecap:round;stroke-linejoin:round;}
</style>
<title>checkmark</title>
<path class="st0" d="M70,18.1c32.4,0,58.7,26.3,58.7,58.7c0,32.4-26.3,58.7-58.7,58.7s-58.7-26.3-58.7-58.7l0,0
	C11.4,44.4,37.6,18.1,70,18.1 M70,6.8c-38.7,0-70,31.3-70,70s31.3,70,70,70s70-31.3,70-70S108.7,6.8,70,6.8L70,6.8z"/>
<path class="st1" d="M42,76l26.1,31.9c0,0,43.6-85.1,57.7-102.2"/>
</svg>
