<svg xmlns="http://www.w3.org/2000/svg" viewBox="0 0 304 304"><defs><style>.cls-1{fill:#4b4b7f;}.cls-2{fill:#d6e5fe;}</style></defs><title>logo_standalone_dark</title><g id="Layer_2" data-name="Layer 2"><g id="Layer_1-2" data-name="Layer 1"><circle class="cls-1" cx="152" cy="152" r="152"/><path class="cls-1" d="M255,117.54a15.84,15.84,0,0,0-5.45-1.54c-11.85,0-14.21,13-14.43,14.11,0,0-1.11,5.76-1.28,7s-5.88,50.18-6.49,55.2c-.3,2.51-.63,5-1,7.6-.17,1.25-.41,2.7-.63,4.1l-.35,1.63c-.13.54-.26,1.11-.38,1.49l-.81,2.54c-.25.85-.62,1.69-1,2.53s-.68,1.68-1.1,2.51a44.35,44.35,0,0,1-2.75,4.86,43.46,43.46,0,0,1-3.37,4.58,46,46,0,0,1-4,4.09,43.56,43.56,0,0,1-20.3,10.18,46.72,46.72,0,0,1-11.25.94,48.45,48.45,0,0,1-11.18-1.83A44.93,44.93,0,0,1,152,227.95a44.93,44.93,0,0,1-17.25,9.54,48.62,48.62,0,0,1-11.18,1.83,46.84,46.84,0,0,1-11.26-.94A43.61,43.61,0,0,1,92,228.2a45.83,45.83,0,0,1-4-4.09,45,45,0,0,1-3.38-4.58,47.89,47.89,0,0,1-2.75-4.86c-.42-.83-.73-1.67-1.09-2.51s-.71-1.68-1-2.53l-.8-2.54c-.13-.38-.26-1-.38-1.49L78.25,204c-.23-1.4-.47-2.85-.63-4.1-.37-2.6-.7-5.09-1-7.6-.61-5-6.31-54-6.48-55.2s-1.28-7-1.28-7C68.63,129,66.27,116,54.43,116A16,16,0,0,0,49,117.54c-6.36,3.3-10-3.33-5.35-7.42a24.45,24.45,0,0,1,8-4.82,27.59,27.59,0,0,1,9.44-1.6,24.48,24.48,0,0,1,10.07,2.14,25,25,0,0,1,8.52,6.7c4.46,5.44,6.67,11.37,8.14,15.68,5.66,16.61,16.53,59.53,22.86,68.91,4.08,6.05,12.3,7.15,18.37,2.88,11.8-8.3,16.37-30,23-30s11.16,21.73,23,30c6.07,4.27,14.28,3.17,18.36-2.88,6.33-9.38,17.21-52.3,22.86-68.91a48.74,48.74,0,0,1,8.15-15.68,24.85,24.85,0,0,1,8.52-6.7,24.48,24.48,0,0,1,10.07-2.14,27.49,27.49,0,0,1,9.43,1.6,24.5,24.5,0,0,1,8,4.82C265,114.21,261.39,120.84,255,117.54Z"/><path class="cls-2" d="M255,117.54a15.84,15.84,0,0,0-5.45-1.54c-11.85,0-14.21,13-14.43,14.11,0,0-1.11,5.76-1.28,7s-5.88,50.18-6.49,55.2c-.3,2.51-.63,5-1,7.6-.17,1.25-.41,2.7-.63,4.1l-.35,1.63c-.13.54-.26,1.11-.38,1.49l-.81,2.54c-.25.85-.62,1.69-1,2.53s-.68,1.68-1.1,2.51a44.35,44.35,0,0,1-2.75,4.86,43.46,43.46,0,0,1-3.37,4.58,46,46,0,0,1-4,4.09,43.56,43.56,0,0,1-20.3,10.18,46.72,46.72,0,0,1-11.25.94,48.45,48.45,0,0,1-11.18-1.83A44.93,44.93,0,0,1,152,227.95a44.93,44.93,0,0,1-17.25,9.54,48.62,48.62,0,0,1-11.18,1.83,46.84,46.84,0,0,1-11.26-.94A43.61,43.61,0,0,1,92,228.2a45.83,45.83,0,0,1-4-4.09,45,45,0,0,1-3.38-4.58,47.89,47.89,0,0,1-2.75-4.86c-.42-.83-.73-1.67-1.09-2.51s-.71-1.68-1-2.53l-.8-2.54c-.13-.38-.26-1-.38-1.49L78.25,204c-.23-1.4-.47-2.85-.63-4.1-.37-2.6-.7-5.09-1-7.6-.61-5-6.31-54-6.48-55.2s-1.28-7-1.28-7C68.63,129,66.27,116,54.43,116A16,16,0,0,0,49,117.54c-6.36,3.3-10-3.33-5.35-7.42a24.45,24.45,0,0,1,8-4.82,27.59,27.59,0,0,1,9.44-1.6,24.48,24.48,0,0,1,10.07,2.14,25,25,0,0,1,8.52,6.7c4.46,5.44,6.67,11.37,8.14,15.68,5.66,16.61,16.53,59.53,22.86,68.91,4.08,6.05,12.3,7.15,18.37,2.88,11.8-8.3,16.37-30,23-30s11.16,21.73,23,30c6.07,4.27,14.28,3.17,18.36-2.88,6.33-9.38,17.21-52.3,22.86-68.91a48.74,48.74,0,0,1,8.15-15.68,24.85,24.85,0,0,1,8.52-6.7,24.48,24.48,0,0,1,10.07-2.14,27.49,27.49,0,0,1,9.43,1.6,24.5,24.5,0,0,1,8,4.82C265,114.21,261.39,120.84,255,117.54Z"/></g></g></svg>