<svg xmlns="http://www.w3.org/2000/svg" viewBox="0 0 321.38 93.68"><defs><style>.cls-1{fill:#4b4b7f;}.cls-2{fill:#d6e5fe;}</style></defs><title>Asset 1</title><g id="Layer_2" data-name="Layer 2"><g id="Layer_1-2" data-name="Layer 1"><circle class="cls-1" cx="46.84" cy="46.84" r="46.84"/><path class="cls-1" d="M78.59,36.22a4.88,4.88,0,0,0-1.68-.47c-3.65,0-4.38,4-4.45,4.35,0,0-.34,1.78-.39,2.14s-1.81,15.46-2,17c-.09.77-.19,1.54-.31,2.34-.05.39-.13.83-.19,1.26l-.11.5c0,.17-.08.34-.12.46l-.25.78c-.08.26-.19.52-.3.78s-.21.52-.34.77a13.67,13.67,0,0,1-.85,1.5,13.39,13.39,0,0,1-1,1.41,14.16,14.16,0,0,1-1.25,1.26,13.42,13.42,0,0,1-6.26,3.14,14.4,14.4,0,0,1-3.47.29,14.93,14.93,0,0,1-3.45-.56,13.85,13.85,0,0,1-5.32-2.94,13.85,13.85,0,0,1-5.32,2.94,15,15,0,0,1-3.45.56,14.43,14.43,0,0,1-3.47-.29,13.44,13.44,0,0,1-6.26-3.14,14.12,14.12,0,0,1-1.24-1.26,13.87,13.87,0,0,1-1-1.41,14.76,14.76,0,0,1-.85-1.5c-.13-.26-.22-.51-.34-.77s-.22-.52-.3-.78l-.25-.78c0-.12-.08-.29-.12-.46l-.11-.5c-.07-.43-.14-.88-.19-1.26-.11-.8-.22-1.57-.31-2.34-.19-1.55-1.94-16.65-2-17s-.39-2.14-.39-2.14c-.07-.35-.8-4.35-4.45-4.35a4.92,4.92,0,0,0-1.68.47c-2,1-3.07-1-1.65-2.29a7.54,7.54,0,0,1,2.47-1.49A8.5,8.5,0,0,1,18.82,32a7.54,7.54,0,0,1,3.1.66,7.69,7.69,0,0,1,2.63,2.06,15,15,0,0,1,2.51,4.83c1.74,5.12,5.09,18.35,7,21.24a4,4,0,0,0,5.66.89c3.64-2.56,5-9.25,7.08-9.25s3.44,6.7,7.08,9.25a4,4,0,0,0,5.66-.89c2-2.89,5.3-16.12,7-21.24a15,15,0,0,1,2.51-4.83,7.66,7.66,0,0,1,2.63-2.06,7.54,7.54,0,0,1,3.1-.66,8.47,8.47,0,0,1,2.91.49,7.55,7.55,0,0,1,2.47,1.49C81.66,35.2,80.55,37.24,78.59,36.22Z"/><path class="cls-2" d="M78.59,36.22a4.88,4.88,0,0,0-1.68-.47c-3.65,0-4.38,4-4.45,4.35,0,0-.34,1.78-.39,2.14s-1.81,15.46-2,17c-.09.77-.19,1.54-.31,2.34-.05.39-.13.83-.19,1.26l-.11.5c0,.17-.08.34-.12.46l-.25.78c-.08.26-.19.52-.3.78s-.21.52-.34.77a13.67,13.67,0,0,1-.85,1.5,13.39,13.39,0,0,1-1,1.41,14.16,14.16,0,0,1-1.25,1.26,13.42,13.42,0,0,1-6.26,3.14,14.4,14.4,0,0,1-3.47.29,14.93,14.93,0,0,1-3.45-.56,13.85,13.85,0,0,1-5.32-2.94,13.85,13.85,0,0,1-5.32,2.94,15,15,0,0,1-3.45.56,14.43,14.43,0,0,1-3.47-.29,13.44,13.44,0,0,1-6.26-3.14,14.12,14.12,0,0,1-1.24-1.26,13.87,13.87,0,0,1-1-1.41,14.76,14.76,0,0,1-.85-1.5c-.13-.26-.22-.51-.34-.77s-.22-.52-.3-.78l-.25-.78c0-.12-.08-.29-.12-.46l-.11-.5c-.07-.43-.14-.88-.19-1.26-.11-.8-.22-1.57-.31-2.34-.19-1.55-1.94-16.65-2-17s-.39-2.14-.39-2.14c-.07-.35-.8-4.35-4.45-4.35a4.92,4.92,0,0,0-1.68.47c-2,1-3.07-1-1.65-2.29a7.54,7.54,0,0,1,2.47-1.49A8.5,8.5,0,0,1,18.82,32a7.54,7.54,0,0,1,3.1.66,7.69,7.69,0,0,1,2.63,2.06,15,15,0,0,1,2.51,4.83c1.74,5.12,5.09,18.35,7,21.24a4,4,0,0,0,5.66.89c3.64-2.56,5-9.25,7.08-9.25s3.44,6.7,7.08,9.25a4,4,0,0,0,5.66-.89c2-2.89,5.3-16.12,7-21.24a15,15,0,0,1,2.51-4.83,7.66,7.66,0,0,1,2.63-2.06,7.54,7.54,0,0,1,3.1-.66,8.47,8.47,0,0,1,2.91.49,7.55,7.55,0,0,1,2.47,1.49C81.66,35.2,80.55,37.24,78.59,36.22Z"/><path class="cls-1" d="M206.22,31.79h5.16a3.42,3.42,0,0,1,3.23,2.3l9.85,28.24a.21.21,0,0,0,.39,0l9.07-20.53a4.83,4.83,0,0,1,8.83,0l9,20.52a.21.21,0,0,0,.39,0L262,34.08a3.42,3.42,0,0,1,3.23-2.3h5l-13,38a5.07,5.07,0,0,1-4.8,3.44h0a5.07,5.07,0,0,1-4.66-3.07L238.42,48.3a.21.21,0,0,0-.38,0l-9.39,21.89A5.07,5.07,0,0,1,224,73.26h0a5.07,5.07,0,0,1-4.8-3.44Z"/><path class="cls-1" d="M201.39,65.92a2.78,2.78,0,0,1-2.78-2.78V31.77h-7.36v3.81a.2.2,0,0,1-.34.15,20.26,20.26,0,0,0-13.51-5.19,19.93,19.93,0,0,0-5.86.88,19.29,19.29,0,0,0-3.2,1.08,20.07,20.07,0,0,0-6.58,4.6,21.94,21.94,0,0,0-4.39,6.86,23.8,23.8,0,0,0,0,17.13A21.56,21.56,0,0,0,161.75,68a20.46,20.46,0,0,0,6.61,4.59,25.74,25.74,0,0,0,9,2,20.33,20.33,0,0,0,14.18-5.81,6.6,6.6,0,0,0,6.26,4.55H204V65.92Zm-10.78-7.51a14,14,0,0,1-7.51,7.9,14.35,14.35,0,0,1-11.35,0,14.32,14.32,0,0,1-4.52-3.15,14.52,14.52,0,0,1-3-4.75,16.45,16.45,0,0,1,0-11.78,14.73,14.73,0,0,1,3-4.76,14,14,0,0,1,4.51-3.15,13.76,13.76,0,0,1,5.68-1.16,13.91,13.91,0,0,1,5.69,1.16,13.76,13.76,0,0,1,4.52,3.15,14.55,14.55,0,0,1,3,4.75,15.88,15.88,0,0,1,1.08,5.89A16.05,16.05,0,0,1,190.61,58.41Z"/><path class="cls-1" d="M318.72,65.92a2.78,2.78,0,0,1-2.78-2.78V31.77h-7.36v3.81a.2.2,0,0,1-.34.15,20.26,20.26,0,0,0-13.51-5.19,19.93,19.93,0,0,0-5.86.88,19.29,19.29,0,0,0-3.2,1.08,20.07,20.07,0,0,0-6.58,4.6,21.94,21.94,0,0,0-4.39,6.86,23.8,23.8,0,0,0,0,17.13A21.56,21.56,0,0,0,279.09,68a20.46,20.46,0,0,0,6.61,4.59,25.74,25.74,0,0,0,9,2,20.33,20.33,0,0,0,14.18-5.81,6.6,6.6,0,0,0,6.26,4.55h6.21V65.92Zm-10.78-7.51a14,14,0,0,1-7.51,7.9,14.35,14.35,0,0,1-11.35,0,14.32,14.32,0,0,1-4.52-3.15,14.52,14.52,0,0,1-3-4.75,16.45,16.45,0,0,1,0-11.78,14.73,14.73,0,0,1,3-4.76,14,14,0,0,1,4.51-3.15,13.76,13.76,0,0,1,5.68-1.16,13.91,13.91,0,0,1,5.69,1.16A13.76,13.76,0,0,1,305,41.87a14.55,14.55,0,0,1,3,4.75A15.88,15.88,0,0,1,309,52.51,16.05,16.05,0,0,1,307.94,58.41Z"/><path class="cls-1" d="M156.42,72.91a.21.21,0,0,1-.16.34h-6.85a4,4,0,0,1-3.12-1.48l-11.6-14.26a2.16,2.16,0,0,0-3.84,1.37V73.26h-7.12V40.42a1.54,1.54,0,0,0-1.54-1.54h-3V31.82h6.4a5.31,5.31,0,0,1,5.31,5.31V48.56a.21.21,0,0,0,.36.14l13.86-15.36a4.54,4.54,0,0,1,3.4-1.52h6.13a.21.21,0,0,1,.15.35L139.38,49a2.79,2.79,0,0,0-.09,3.67Z"/></g></g></svg>